<svg width="500" height="500" viewBox="250 -50 500 500" fill="none" xmlns="http://www.w3.org/2000/svg">
<path d="M574 280L598 304H446L470 280H574Z" fill="black"/>
<path d="M673.315 266.664L672.979 267H654C634.061 267 617.807 282.772 617.031 302.521L377.881 63.3711L378.252 63H413C428.316 63 441.458 53.6944 447.081 40.4287L673.315 266.664Z" fill="black"/>
<path d="M505.278 221.491L417.462 309.307C417.814 307.257 418 305.15 418 303C418 282.565 401.435 266 381 266H368.493L459.141 175.353L505.278 221.491Z" fill="black"/>
<path d="M405 314C405 331.121 391.121 345 374 345C356.879 345 343 331.121 343 314C343 296.879 356.879 283 374 283C391.121 283 405 296.879 405 314Z" fill="black"/>
<path d="M693 311C693 328.121 679.121 342 662 342C644.879 342 631 328.121 631 311C631 293.879 644.879 280 662 280C679.121 280 693 293.879 693 311Z" fill="black"/>
</svg>

